<svg width="186" height="42" viewBox="0 0 186 42" fill="none" xmlns="http://www.w3.org/2000/svg">
<path opacity="0.5" d="M40.0652 2.25671L30.2601 36.9917C30.2102 37.1494 30.0108 37.1967 29.8945 37.0863L23.3301 30.8583L28.2492 13.4514C28.2991 13.2937 28.1495 13.1518 27.9833 13.1991L9.63617 17.8662L3.10498 11.6697C2.98865 11.5593 3.03851 11.3701 3.20469 11.3228L39.7993 2.00444C39.9655 1.97291 40.115 2.11481 40.0652 2.25671Z" fill="#00B37E"/>
<path opacity="0.5" d="M23.3297 30.858L20.8037 39.8452C20.7538 40.0029 20.5544 40.0502 20.4381 39.9398L0.0634003 20.6251C-0.0529313 20.5147 -0.00307518 20.3255 0.163113 20.2782L9.63583 17.8658L23.3297 30.858Z" fill="#00B37E"/>
<path d="M28.2484 13.4511L23.3292 30.858L9.63533 17.8659L27.9825 13.1988C28.1487 13.1515 28.2982 13.2934 28.2484 13.4511Z" fill="#00B37E"/>
<path d="M72.1065 19.993V27.2013C71.8234 27.5428 71.3861 27.9134 70.7948 28.3132C70.2035 28.7046 69.4414 29.0419 68.5086 29.3251C67.5758 29.6083 66.4473 29.7499 65.1231 29.7499C63.9487 29.7499 62.8785 29.5583 61.9124 29.1752C60.9463 28.7837 60.1134 28.2132 59.4138 27.4637C58.7226 26.7141 58.1895 25.798 57.8147 24.7152C57.44 23.6242 57.2526 22.3791 57.2526 20.9799V19.843C57.2526 18.4438 57.4316 17.1987 57.7898 16.1077C58.1562 15.0166 58.6768 14.0963 59.3514 13.3468C60.026 12.5972 60.8297 12.0267 61.7625 11.6352C62.6953 11.2438 63.7322 11.0481 64.8732 11.0481C66.4556 11.0481 67.7549 11.3063 68.771 11.8226C69.787 12.3307 70.5616 13.0386 71.0946 13.9464C71.636 14.8459 71.9691 15.8786 72.0941 17.0446H68.4586C68.367 16.4283 68.1921 15.8911 67.9339 15.4331C67.6758 14.975 67.3051 14.6169 66.8221 14.3587C66.3474 14.1005 65.731 13.9714 64.9731 13.9714C64.3485 13.9714 63.7905 14.1005 63.2991 14.3587C62.816 14.6085 62.4079 14.9792 62.0748 15.4705C61.7417 15.9619 61.4876 16.5699 61.3127 17.2945C61.1378 18.0191 61.0504 18.8603 61.0504 19.8181V20.9799C61.0504 21.9293 61.142 22.7705 61.3252 23.5034C61.5085 24.228 61.7791 24.8402 62.1373 25.3399C62.5037 25.8313 62.9535 26.2019 63.4865 26.4517C64.0195 26.7016 64.64 26.8265 65.3479 26.8265C65.9393 26.8265 66.4306 26.7766 66.8221 26.6766C67.2219 26.5767 67.5425 26.4559 67.784 26.3143C68.0339 26.1644 68.2254 26.0228 68.3587 25.8896V22.6664H64.9357V19.993H72.1065ZM86.8231 26.5767V29.5H77.6659V26.5767H86.8231ZM78.8777 11.3104V29.5H75.1298V11.3104H78.8777ZM99.0911 11.3104V29.5H95.3432V11.3104H99.0911ZM106.337 19.081V22.0043H98.0667V19.081H106.337ZM107.211 11.3104V14.2462H98.0667V11.3104H107.211ZM112.958 15.9828V29.5H109.348V15.9828H112.958ZM109.123 12.4598C109.123 11.9351 109.306 11.502 109.673 11.1605C110.039 10.819 110.53 10.6483 111.147 10.6483C111.755 10.6483 112.242 10.819 112.608 11.1605C112.983 11.502 113.17 11.9351 113.17 12.4598C113.17 12.9845 112.983 13.4176 112.608 13.759C112.242 14.1005 111.755 14.2712 111.147 14.2712C110.53 14.2712 110.039 14.1005 109.673 13.759C109.306 13.4176 109.123 12.9845 109.123 12.4598ZM119.454 18.8686V29.5H115.856V15.9828H119.23L119.454 18.8686ZM118.93 22.2666H117.955C117.955 21.2672 118.084 20.3677 118.343 19.5682C118.601 18.7603 118.963 18.0732 119.429 17.5069C119.896 16.9322 120.45 16.495 121.091 16.1951C121.741 15.887 122.465 15.7329 123.265 15.7329C123.898 15.7329 124.477 15.8245 125.001 16.0077C125.526 16.191 125.976 16.4825 126.35 16.8822C126.734 17.282 127.025 17.8109 127.225 18.4688C127.433 19.1268 127.537 19.9305 127.537 20.8799V29.5H123.914V20.8675C123.914 20.2678 123.831 19.8014 123.664 19.4683C123.498 19.1351 123.252 18.9019 122.927 18.7687C122.611 18.6271 122.219 18.5563 121.753 18.5563C121.27 18.5563 120.849 18.6521 120.491 18.8436C120.141 19.0352 119.85 19.3017 119.617 19.6432C119.392 19.9763 119.221 20.3677 119.105 20.8175C118.988 21.2672 118.93 21.7503 118.93 22.2666ZM137.569 26.4517V20.4302C137.569 19.9971 137.498 19.6265 137.357 19.3183C137.215 19.0019 136.994 18.7562 136.695 18.5813C136.403 18.4064 136.024 18.3189 135.558 18.3189C135.158 18.3189 134.812 18.3897 134.521 18.5313C134.229 18.6645 134.004 18.8603 133.846 19.1185C133.688 19.3683 133.609 19.664 133.609 20.0054H130.011C130.011 19.4308 130.144 18.8853 130.411 18.3689C130.677 17.8525 131.064 17.3986 131.572 17.0072C132.08 16.6074 132.684 16.2951 133.384 16.0702C134.092 15.8453 134.883 15.7329 135.758 15.7329C136.807 15.7329 137.74 15.9078 138.556 16.2576C139.372 16.6074 140.013 17.1321 140.48 17.8317C140.955 18.5313 141.192 19.4058 141.192 20.4552V26.2394C141.192 26.9806 141.238 27.5886 141.329 28.0633C141.421 28.5297 141.554 28.9378 141.729 29.2876V29.5H138.094C137.919 29.1335 137.786 28.6755 137.694 28.1258C137.611 27.5678 137.569 27.0098 137.569 26.4517ZM138.044 21.2672L138.069 23.3036H136.057C135.583 23.3036 135.17 23.3577 134.821 23.466C134.471 23.5742 134.183 23.7283 133.959 23.9282C133.734 24.1198 133.567 24.3446 133.459 24.6028C133.359 24.861 133.309 25.1442 133.309 25.4523C133.309 25.7605 133.38 26.0395 133.521 26.2893C133.663 26.5309 133.867 26.7224 134.133 26.864C134.4 26.9973 134.712 27.0639 135.07 27.0639C135.612 27.0639 136.082 26.9556 136.482 26.7391C136.882 26.5225 137.19 26.256 137.407 25.9395C137.631 25.6231 137.748 25.3232 137.756 25.0401L138.706 26.5642C138.573 26.9057 138.389 27.2596 138.156 27.6261C137.931 27.9925 137.644 28.3382 137.294 28.663C136.944 28.9795 136.524 29.2418 136.032 29.45C135.541 29.6499 134.958 29.7499 134.283 29.7499C133.426 29.7499 132.647 29.5791 131.947 29.2377C131.256 28.8879 130.706 28.409 130.298 27.801C129.898 27.1847 129.699 26.4851 129.699 25.7022C129.699 24.9943 129.832 24.3654 130.098 23.8158C130.365 23.2661 130.756 22.8038 131.273 22.4291C131.797 22.0459 132.451 21.7586 133.234 21.5671C134.017 21.3672 134.925 21.2672 135.957 21.2672H138.044ZM147.488 18.8686V29.5H143.89V15.9828H147.263L147.488 18.8686ZM146.964 22.2666H145.989C145.989 21.2672 146.118 20.3677 146.376 19.5682C146.635 18.7603 146.997 18.0732 147.463 17.5069C147.93 16.9322 148.484 16.495 149.125 16.1951C149.775 15.887 150.499 15.7329 151.299 15.7329C151.932 15.7329 152.51 15.8245 153.035 16.0077C153.56 16.191 154.01 16.4825 154.384 16.8822C154.767 17.282 155.059 17.8109 155.259 18.4688C155.467 19.1268 155.571 19.9305 155.571 20.8799V29.5H151.948V20.8675C151.948 20.2678 151.865 19.8014 151.698 19.4683C151.532 19.1351 151.286 18.9019 150.961 18.7687C150.645 18.6271 150.253 18.5563 149.787 18.5563C149.304 18.5563 148.883 18.6521 148.525 18.8436C148.175 19.0352 147.884 19.3017 147.651 19.6432C147.426 19.9763 147.255 20.3677 147.139 20.8175C147.022 21.2672 146.964 21.7503 146.964 22.2666ZM163.891 26.939C164.333 26.939 164.724 26.8557 165.066 26.6891C165.407 26.5142 165.674 26.2727 165.865 25.9645C166.065 25.648 166.169 25.2774 166.178 24.8527H169.563C169.555 25.8021 169.301 26.6475 168.801 27.3887C168.301 28.1216 167.631 28.7005 166.79 29.1252C165.949 29.5416 165.007 29.7499 163.966 29.7499C162.917 29.7499 162.001 29.575 161.218 29.2252C160.443 28.8754 159.798 28.3923 159.282 27.776C158.765 27.1513 158.378 26.4268 158.12 25.6022C157.862 24.7694 157.732 23.8782 157.732 22.9288V22.5665C157.732 21.6087 157.862 20.7175 158.12 19.893C158.378 19.0602 158.765 18.3356 159.282 17.7193C159.798 17.0946 160.443 16.6074 161.218 16.2576C161.992 15.9078 162.9 15.7329 163.941 15.7329C165.049 15.7329 166.019 15.9453 166.852 16.37C167.693 16.7948 168.351 17.4028 168.826 18.194C169.309 18.9769 169.555 19.9055 169.563 20.9799H166.178C166.169 20.5301 166.073 20.122 165.89 19.7556C165.715 19.3891 165.457 19.0976 165.116 18.8811C164.783 18.6562 164.37 18.5438 163.879 18.5438C163.354 18.5438 162.925 18.6562 162.592 18.8811C162.259 19.0976 162.001 19.3975 161.818 19.7806C161.634 20.1554 161.505 20.5843 161.43 21.0673C161.364 21.5421 161.33 22.0418 161.33 22.5665V22.9288C161.33 23.4535 161.364 23.9573 161.43 24.4404C161.497 24.9235 161.622 25.3524 161.805 25.7272C161.997 26.1019 162.259 26.3976 162.592 26.6142C162.925 26.8307 163.358 26.939 163.891 26.939ZM177.871 29.7499C176.821 29.7499 175.88 29.5833 175.048 29.2501C174.215 28.9087 173.507 28.4381 172.924 27.8385C172.349 27.2388 171.908 26.5434 171.599 25.7521C171.291 24.9526 171.137 24.1031 171.137 23.2036V22.7039C171.137 21.6795 171.283 20.7425 171.574 19.893C171.866 19.0435 172.282 18.3064 172.824 17.6818C173.373 17.0571 174.04 16.5782 174.823 16.2451C175.606 15.9036 176.488 15.7329 177.471 15.7329C178.429 15.7329 179.278 15.8911 180.02 16.2076C180.761 16.5241 181.381 16.9739 181.881 17.5569C182.389 18.1398 182.772 18.8394 183.03 19.6556C183.289 20.4635 183.418 21.363 183.418 22.3541V23.8532H172.674V21.4546H179.882V21.1798C179.882 20.6801 179.791 20.2345 179.607 19.843C179.432 19.4433 179.166 19.1268 178.808 18.8936C178.45 18.6604 177.992 18.5438 177.434 18.5438C176.959 18.5438 176.551 18.6479 176.209 18.8561C175.868 19.0643 175.589 19.3558 175.372 19.7306C175.164 20.1054 175.006 20.5468 174.898 21.0548C174.798 21.5546 174.748 22.1042 174.748 22.7039V23.2036C174.748 23.745 174.823 24.2447 174.973 24.7028C175.131 25.1608 175.352 25.5564 175.635 25.8896C175.926 26.2227 176.276 26.4809 176.684 26.6641C177.1 26.8474 177.571 26.939 178.096 26.939C178.745 26.939 179.349 26.814 179.907 26.5642C180.474 26.306 180.961 25.9187 181.369 25.4024L183.118 27.3013C182.835 27.7094 182.447 28.1008 181.956 28.4756C181.473 28.8504 180.89 29.1585 180.207 29.4001C179.524 29.6333 178.745 29.7499 177.871 29.7499Z" fill="#E1E1E6"/>
</svg>
